<mxfile host="app.diagrams.net" modified="2023-11-26T19:48:11.820Z" agent="Mozilla/5.0 (Windows NT 10.0; Win64; x64) AppleWebKit/537.36 (KHTML, like Gecko) Chrome/119.0.0.0 Safari/537.36" etag="Ydn7gB_yEfjEMJo_rkTx" version="22.1.4" type="device">
  <diagram name="Page-1" id="AKaE3i0IqbcfjCqMQLZv">
    <mxGraphModel dx="-226" dy="1184" grid="1" gridSize="10" guides="1" tooltips="1" connect="1" arrows="1" fold="1" page="1" pageScale="1" pageWidth="850" pageHeight="1100" math="0" shadow="0">
      <root>
        <mxCell id="0" />
        <mxCell id="1" parent="0" />
        <mxCell id="hAMQrah5wHO0PN8DFBSk-3" value="" style="rounded=0;whiteSpace=wrap;html=1;" vertex="1" parent="1">
          <mxGeometry x="850" width="430" height="1100" as="geometry" />
        </mxCell>
        <mxCell id="hAMQrah5wHO0PN8DFBSk-5" value="" style="rounded=0;whiteSpace=wrap;html=1;" vertex="1" parent="1">
          <mxGeometry x="1275" width="425" height="1100" as="geometry" />
        </mxCell>
        <mxCell id="hAMQrah5wHO0PN8DFBSk-6" value="" style="rounded=0;whiteSpace=wrap;html=1;" vertex="1" parent="1">
          <mxGeometry x="850" width="430" height="370" as="geometry" />
        </mxCell>
        <mxCell id="hAMQrah5wHO0PN8DFBSk-7" value="" style="rounded=0;whiteSpace=wrap;html=1;" vertex="1" parent="1">
          <mxGeometry x="850" y="370" width="430" height="200" as="geometry" />
        </mxCell>
        <mxCell id="hAMQrah5wHO0PN8DFBSk-8" value="" style="rounded=0;whiteSpace=wrap;html=1;" vertex="1" parent="1">
          <mxGeometry x="850" y="740" width="430" height="360" as="geometry" />
        </mxCell>
        <mxCell id="hAMQrah5wHO0PN8DFBSk-9" value="" style="rounded=0;whiteSpace=wrap;html=1;" vertex="1" parent="1">
          <mxGeometry x="1272.5" width="430" height="370" as="geometry" />
        </mxCell>
        <mxCell id="hAMQrah5wHO0PN8DFBSk-10" value="" style="rounded=0;whiteSpace=wrap;html=1;" vertex="1" parent="1">
          <mxGeometry x="1272.5" y="370" width="430" height="370" as="geometry" />
        </mxCell>
        <mxCell id="hAMQrah5wHO0PN8DFBSk-11" value="" style="rounded=0;whiteSpace=wrap;html=1;" vertex="1" parent="1">
          <mxGeometry x="1272.5" y="740" width="430" height="360" as="geometry" />
        </mxCell>
        <mxCell id="hAMQrah5wHO0PN8DFBSk-12" value="" style="shape=image;verticalLabelPosition=bottom;labelBackgroundColor=default;verticalAlign=top;aspect=fixed;imageAspect=0;image=data:image/png,iVBORw0KGgoAAAANSUhEUgAAAQkAAAC+CAMAAAARDgovAAAAkFBMVEX////8/PyYmJj39/ePj4/19fWUlJSXl5fBwcG7u7vd3d3w8PCfn5/q6uqMjIzz8/Otra19fX2lpaWGhobk5OS0tLTJycnX19d7e3u+vr7Nzc0AAAC3t7fGxsZ1dXXl5eVqampsbGxhYWFZWVlISEhPT08/Pz9CQkI1NTUrKysjIyMUFBQyMjIgICAYGBhMTEyEEph/AAAgAElEQVR4nO1diZqjOJIWp0FCWIhDRgbjo7K6anpm6v3fbiVxgwQ4O7tntnfjq8p02hjEr1DcCgBxBfk9nWxb/RbvuCP5s2PaAxTFcdz9kpSuSb7txu23T6coohElISF5VVV5TgiN7JMt343UGe3IpimJaGq7vm2LQ6n4xD65kT2QrxuGluKB3PFo9UudSFyVioHkYVDXBWfMAg/wf5UsxzmfMW4yCBkrbhtIoL9wVP95upuR4HGYV/ivHMx/lJ5rJJK4/Q2J+MEJCZy/eEz/GVrzhHVx4u5F+4YXUrv++6OxRuLsAi8NxZ3HEzkBSfR3R2O9OpxE/MCRX9DFBzCnUXD+i8b119NTcMXqLUWJq9EduKRp0Fh/8qD+I2REwkoCpv3GAzDyCNjfbqlokGjfQHGk/UIjF00KmpJE1d8KDg0SreBAP7j2C5XglCJQLx1GSJQX6H/ZYhEmksPXK1+DxE39dF5Qe4ep+D+VIBYshW8QsvP/FjzOL7eOmW0vx6tBIml53rq+zqHnrT4FYP0VgUeQExrW2X8/IHZDQvGrzBfvr5GwOt0BGE9Tn1XZ7FPHFT9epqtgVoQhqQKI/nslSH97t9X798U7KJm8zvN7FNU5GFiDSxFhRKL/Gqwr4XqXNUQrnjKRA48e+ccIut2LZMG9ayTofEiWx6PveZ5VQH3Tl7e2/IqJEGRBGeRhGPIMofMmnxRPva76arL726sWGuE+cEtPt6hefhtVKS9cN0OtmABUb2kYyXkiGQPgBS+Ee1sGQcEZbJAizzt7juOAulyy659D934+kLv4YIXExWLu2hfHIM3Tf3RIkOK9qyN/8YaDcANbepAgrPI8J47/l8RDxttduBkrJHgp51B7kqYQvod8AeP3rg6XcnpC+cCkLP4LoLDGW0vnq3WFRCoFQWoaE201CbPfujwPzJ81o3hgxCaEVPaba+8tmuiDcL7IH0sk7vJH1BhO1IUswHvTF+jNVUVs5vI6cp7uzcbxf5CcyZpAyZQrHgtFANUUZb5YxzoF2Es16y3xRjdigMrMmZOTMx9k1Cb1n7BcBiQQBjU9Tz+4zw60W/bHVVhSilE3lF71Nml/HCf9K1zsxjrTjc/YMgyiKEuFaMFZ+Fzj9McIt8Lb4uFFMB60R9n/WIjQ6VwjEpLYpoRQ189reb/sNHzo9lIwvJYAphxYc2N0ShIJbAld6VgrY9xJNF/oh/2uktonOdMoPMfur1xNwW0Y0CLKX5TGUdWEBNUoKVnPFE2IgHBpALwKNOQ9rz0PebP/Sk6xe8l5lIMgssIssALMLMGdF5PBZbkjQ3yZ8X4XTvbzlBa4G+VjgsRtfuAWeXQU9PMjxSrKykbdM/sQXDe3UyUSdR2WJeXYPYFTWv9eJblPaS6QJQbx6I3yDMffN8d1mHDiSitzWM7WbWTk26AOJJlGNdBzgFBvcohrhOJil5/DipQ0vYRgGZQ5CGFMMJbGyyhxZmSNX4I+2VDDb1D2nHtMYTIRyRcwXaf3vXMNa2I7iYgFotGAlbUlMQHW2yaXAXOSs6llhj7vqtFwatk4txkuyRSJZtdgGoyRaN/8GW6l0aqHnpDO87JSC6ilDAObg+JFOr8Q51FeuJ/JU0LhHCfVeLe4vsx1XjplXdss/luqh8m5e8XhmAzbVIXeSfNeeqYRlUIkl8OVGqeSJ7GpxKCw87fMfY9RWjFhHjWn0cRO+MJ6TKc80QlPf+WMDgMcXmakOWxcFabzKXI0d/WMqQOspIono2U0iIZZLNz1l/RnL3Ja4m6himVa92NZjd6dIEE6q+p2Av8sgIY/4pkyO1xuQLZXUmIhx/IcBISPLmZfzF3Q6XLnYUg0eV69YYZMiLbmrd8imsU97vi+WpP+iETdL+faYtcM/iYMsfmx4Xxu06NK3t82QtPo95z9DL+7MbxDmifOMxgMKhItA0chJZQ9g/CQqOh1TqufkOSDWC5q9lqL3XF1eFN+8UCQAr8CsBrfW/ri5KgQT+AmZqQOIeYsCHJWBXZQNs98clWriKrR/4CxRDW9HZuEetB0cnlYyrCX+ax8GS+RNCJxWXzigOIB0tjheScaLwsRyTeX/4QuZRCEVaj+lwzihWtXr0xquliZ5yCVAJD4u7o1YfmX68Cahsa5fYA6yBVneELC+DrNMGhRrJVBdQjSa/eaL5G8DFOVbfLqIFAsx/Maxos6KHNJlaxxKh9LMaKz72gBag7bO6By1TO6Ef5pKRzP8wDPjLdMLOB56FhqQAKalL4zDHSVVe/ZyLoHJJdhW/0Zlty2oGVYCGrUKgAfYJiIToPhTYOtEwsdKXZIhGkbCPkNtZM+IMH0Ru+ElMAUUnRcJGlNKQnY01eCycI8CIog4Mvk2Q4SS7s90DL+C4VdDtLuBbDe4O/JeS3/uHjX2+8Y3E5an2JAwmD+T0hBLAzfVEjOTs9zy7IEz/yaMoPlsYDQilQF6yZ7xww6LVeH1lBh387/kL+9V79ad5QX/DVVWXElA21MZqSaqzYJM/gd2Z6lrbJfAJ3BIxUnA4iPF9KKcsvJipDkQUk3jW2wvvMP3UEefagRxmhgmUy7jAZ6ThF2boMgtvSJqwEJ9NuOZpo6L0wYaz9rEMf9SbaIVZsfS+tuTtqR3t1c3lkxPdm2dYVmw7qL5a3uAKY3raU3IOHXgb3pVtlze89pPDG69vU2+29FthUtkXjIYAfPSpZDkp9sOwjpB7i2NtFUNsDtBT2PkbtYCgBuu5HUQxoa4hOJXDx17AYmx0ojqTsucnSGykgh4wmwecOsGp/X4bs1ErczgNc0x3GM/Ci6oQfJhwz9dCVtOj5ZMjH8PA+EUZ6moXrvrr3FEYnuDUjtSGs8mpfAVmJHUIScF6I2f6AIVt/luX8jTgKiTMypMJrxiqWcuATI81BjST9ECBz1rqWU+H08jDIvvWgM+dr36zDqxR6zeAquSEhcR8bSyG8cREJvr/l0QGICsFW7LlleYiPIUG17WIqrIXBywABTcvajyn+AfzQxPdvn6kOzuJiGAaHkvEl2AVLhWlqr+alP4gpZx63sbt3i8OrFgfS+nskt/+BShd5x8c8lY/RIZAvfDIW+Oys5DMxhZnvbGzIYQI6HS+HwCt9Ac4B3W52zlNPojCup4lKLLjVpF3JngCjMniCpPXXPyBW2KwLCiZXSJfZ/X+vuFol4rTnwvTy5dQ+d5oCediynXf9Ze0CyHKlySr0J/6hFnC/iLXktXXEhmL7/U/45DhqdQBaSqHg4CRcm4WUVxO+R0EifXHKBEBu2ik5tmLbtncQxtrTFeDtAmQ5IF+tTjXAeX8Qeg0szSCiXj4fzBEvryflZKSh5Wf+4RRqt0yGRaBh8eC8jhPK7driSrJZjb/9wnO+gvOAzh2C6rnaR0OuApQho9aeYEAvVPKB1FTk/+bW2F+L9pQLsGrpbWZ5E1yYK9QH8hxqoNpQ7c7hwQGmlD0jgTpZaUi4WiQevcunTFKAW+d0o39p/sBDkxdzhs1rOI9FHGN3Aza2LW0E4PhfzIOltIQjh4NhebkVSYAt9M+j8h+LtUCP90dqW5ZTa4crhLBdf9jKppMg30Ho62zF+Qc5vwo+twpy01G9HauZI9BsM7i5nWTjyPp8i4UxjKEIs5EKt0U5h2nLpcjvPQF7qfLwWCaaxCAzFyg4rczufcochE27JUDKQgpdlOntqoFXFTUeLOMG9/bUQr00ysQzOnXNmsZCEw+ym7YuKg5LCBmfChdQF2+/tMtY4uCezsmhSmJOIdPJxZ86hD3ldianOqfDhq7LmDEpbcwDHM5xgESfohrjIRMTlKJJq+rBwTXJSzpdxpPQQjyIE6PWaaRK3kjoklssLbN5gG2+zWCmuGsAdLcnn+so6Y8gY53Xod+NFBrdl4Wp2AZ159NSaXNxnUipoouHWjVGKyQuKVega57dDYp2wRhu+tD9RURbbQUIng1rKi1xg6SGTI5VPrD0LdLmPeTXPqAdQbByHyjKk5C7E10al470V7evcRbgRuZ5d09v2v4TbsfmxFUVGzNGtLsOg4HVZ5dW9XRZzTTQk/WsKXJMwUuGTWw7qpRk2P5UJCX9DyM2Q4DtlL/Fe1pCZS36nkhwpTT8XHkN1qayN0WQdvAZlrgzSAOcZldsBmBaJZh3j3Ei3WbPP8p1c8S4SYEzyrQ6NJlaQWsad9HIc4KCCfKuFrwlQrUTiPP2KEUGv+spO91yVt/h7UZIWCbayHfBGFITNThrvlFntmRNDUEt47wkF5JWDalwvE36Rzj9NalkQXvE4DRiW9gF/0rpdN33SvcE2uktXPHvWHGMLnKU+mJs1GrXeIrEuNc03xMTcY7/vFKkfSGCqKBGgZ8u3QfBiwB2FwVQsPDktm+5qo2s88nzaZLbzcJNvMC2w34xaxJMJjvFMXmBrnIdOTqws4i2ens8yy6s8YOZtDL370CDJydrDhuW+uugsp5FOVKQucuem5ctKKYfnpWRMz90tOoA9g3vssrUY75Cwlyy+NZMafs94Vd2IAGTNIB3IjvBGrpZgWfQjA5F19gHkwGqMt6WonvlD03pZrNGHPgdQqx1kUNtKLRblV0AJxNpZ7pBYOozthfAzA5pTGyyhBFgZC8KKhGIJD3t/+ipDi3NZpfU7hD8g+MksYcjEIOz2IeqdNCeeC+OpbNaZ6D/1fMxSudIzwj+ireLfHolyHpKqlVBkPyG7C5znV4D6SsVJXNfLhHNSya0uDLH1XTqy30EJGAe9I5lo6ySW+dGZO61hzKtGi1mIpmpguzsFeiTwXHt0KU9LuJ8glztEwZjiq/TlHbp6KUdY1mUVhrLfxdqJHanWgrtM1c4sF03U4+fcj7RQkUd5yWOp9E3OzUg9En2VSF99U49XFaLucQP3GLBWmBgWx15aQ5+XbQnpxdLibrMpMpM7s4BHlRk5jMxBvMxDLgUCAXEtvNFVhHpFPRJWmkvVzcOy4yJ/NvMeuAfg91bvG+5or7Ak23Bk9BtKlpziTK+sfB9cS1eCoMCu5MeJTFPDQHgz1zstAKMJp1VBrQt87OvyxwA8kUh4rNdk1kokCXmofivk1ytkx7/YrsB7qqpux/E8hHEjN0oFrFgGTYbaNAmCiooksWU/HJaBUIy6IbFYhfyXWAml0CEPFPmUkdRhNa8ZtBy4bQyPSITti/R7BwUzcHujOEPutX7MDIC9hbhZgkNvYVWWQVDXgYxfZBhZ9Of8ENSaiYzZ7CUrhKTYEWbnaKB0u4cS6amnYfSULqhT3YAVy8Sgn6Tbc/UYLIdny70l7G+P6iVjGwYhqbI5fok77PTsHv/Vm1OiwVHwKGpktohS6AbB9/YSNH9xmeLlS4XIOolN5Up7SlMlTDMQC9UrvnbzYLPDswMSg10+9J1Yrw9F42LNAHwg61v7RWuvQjI8cZiJydYboxopI+7Ij8RatOM7jwtuZ2qo2LHUVDULa2worldlrJ1NcAMkcwHJ+WO/Ou62QmIU2Pr1sbhjq2nn+qzMQavQ7WpQFGWoaTJWyCVQyt2AVRnIBVEUvKjL6GM1ZU+5yQLWWFaooW6wIy2MzFkuty97CkKZoUAgsw7UCQ5IgL7AX9givea3dc6VQR60aWLKQJV6EAHElv6e4XuyKsfxzmcULpfXOt061arnuTKfKZ9+D8RFnOGmErqafZ9LGpGQcUBFjdUvad36WHJlT22QThhDQSpnIHXB6QFwBTgEjgJ0T46glTG62qE4PcVM8VqXKWpVr32d/Dv9wHUFogN13hMkhtqXIO2XBV+nhQ3B/7Y0sL0+QAEIiBBY0r2OE+CrcezplmUyC6zjzFOesL6TcZ6wuMLZARV8OuKuJ+vmHD1z53YnB6o3RyTwZE7gsD5W8s0kGFOdeLDOQAyCKDbaNXc1Byz4aMo1wrM7xyqZI64sFGgqvI5v7CNYBSJZbPn5gQZlIxKTuoGQ9+g7q2CW6YZ2c367Vh5fG6GLXTATL8qjUovyPLVLx+Zi6KUveNHSePjclQGgfboNtzYJb8GxFnhlBRhuyNq90f0oXrHWVU97emOjK85nealv08tMeVOqHXGG506oVdFjHOGUrcJnv+wXXUywwXvYi/UfSJkLjbc+7WxLxDjfcwkyOXUHlgMzduHEFvPDr/zXkS5cEySmOpc8+pXlzfV2YSit2fKvWhqYJm3k3sGstgBRW5yGom9t6GrKSkPzDD4vbIxHh9/GkIX8X1Fd199krllg8zq2V2qCxJTxkTP4onNlcTLEb7e2jisabdArluGq6nqWRXYv3mdwpQrGmQUxEXKa5QAy5FtsikQXxXWQs+SvMbj1AOTi8xd8OAMfIG3B+oqmSEzTXuz7cPKZtrgb4i1kbwvZuKwQAvgMZPg9dyyBc9iLhyy+EmSf7yDFsVC/J3jFp2mmpxPKSeSvbi1qz9HI6he21GIkPrITZYrE9KUXDqUp5+n6uGUBqap1aHg9uAXB/R3igiewlTkBqJysABw7Z8eZbEI8nxDLMNVv2/tBBLzcYECdj2y8nSExDTuhcR1MkvBtiM5pAkJIOK2q2teR+5tf9SFu3vMk+6gzVs9Wp3XupuviwLgqdWXRMAhJke/uBVkgMVOFmAwnHtfHNMjgsJKSPGz5Y1dH1vs9JQzB/r7gKuiwdLJz0+SQ14S/mjZHpisTa7fCdx3ptjdAKJohMXf2/j2w4VhBQFeXtBAvw5p+aHIpM9rKvXdkSnt0mtFV4wmTiuZXSMsnj4TRpGbGX6UimoIQOmwfs+1dzbZEYpr5siZDb2vNMDMuAkxRIUZISMEMunurG0dHxm1HylrqtvMVD15lzMNgiDMCOmE3B/IqzOfN+Mo7uT13VekcCaP1I0WR9WTGhHPRDcZyYF3mZRDWfNHTZKOytScjEgF3mNGcR2p/WxbE90uSJFGgzXBZ1u76mCGh287bXU4OckMqriIhlgeLoKqCUGDCYebs+yUbSIDbI7MN5TDku8A9LznSNzcBfZQn2mvqMeeJxLgpRdgLeMOg3sgwWYAnDeMBr4TNV1ZVGBQFgxCjs7OYPbOdiheTgBmvyzKoSFgPU3BffauxECzuKv6r9e/mNEdCFicbgm/J5p65TadiXePo4Yyp3ZItlWUou3u55gsoJGDA66pq867LUcJ0agpzQJxvJK1oVr2Ir7jhsSenbkv959j6tCcmWwmLTXNi1YDRQLr8tyKrFBh58IVNd8OTTrs3VtQQ0FzAtf5nfoN232sPJ7utCBdIQCczNbMKN1A1CxhJaVkRSsJQtu0Kak270o6G3KwwmDLB/7VYTITYAHy/BWVQmNWw2jWdRexWXbO0EkrGhdCbeecHylncORJpfT2ttk139G/zWc6bu/TmXLcxqt8q2R5QUM1Z1utBVhm7GvSJGbWq+JXeeAS1e9iPNIhIdNahT3RYLBtKTogbWx6115iROTGiw+icLN/3MhAKh76q0G/yz6bb8HU2lfXgMjyyPC9aO1n4g2taNpSc0FZV1kqcmleSroAWunUqRR5uPAJoaP2LkRwkjhCb4k/xvr3n2f0i2SE5ddELu1IjxvV78BVtZxznV9hIlhlOoxYHjPATxFSoc1xO7Mu+2iQQ0ARhEbWoT85Dj3jkkgxILLadtnQX/7MrqFPhsM9XyqZAcua33rqzAWpknEIYf3jMEJV6rmvPjoDmnrouLcVQCtkkJCR5PaRK8OGONnokboHGHSrlLQgf2f8uVpTzkhVI/T1seqILg0mdOMvtK8jBFQp1T5M7bwcBtYbdVv7KRYjX0apvg2Cv7lT70dOe9Eh4YmW6Cw081PFaZ1CLFQuSFDwfMstjyiV3tLBDmJKuBDOU4xAyIQdI1GWlNSFdoBX8luxrkOdBXnGhK9b7W2W0X5Vx10e7hRiQUIJruVdnIRU9wBnIb8Il6BsxeSHiOvWyiNGYYsLAVBjcp7CF/18UdVjWQVgWLBk5hfRdU2BQ5zxA9+olZ9GH5+hYX5/uMpqD2+0E9tzCMqwAxPrIXHYlL/QjAahuZh3LF9saNmK/cySstgKA3CvBOsIeD+qpXTGNBjYkVrEA5kcRfwKbBY6czSd9p3GgFgnU5r1nSGyVZ7f36jSN7biRMHHIBfyD1y5qzxDNv7ncNjYhYSjjnPghzSi9ETHBaSYz/z1ZU+k3V0Gy0B8DsdTyQIjdIHWLpy6pu0VaJFqaFelvyuB5YZvloBzZBfdZ23liUfhcmtWaQIK8yIVGJClvyM8JzKcib37zc410wc4DfM9+L6hYEfTkMxvs5qLmtIHErDcH3DqvHiUM2mclLT7daH4ikFgKGm8yiDkSizb5EXeFkwgxx10ZkTZlvUEbSFiPPGBD4/QtdbQdzl3iVNum4kiN7ph2vZh3d1jmJZcBiPvmoNaUbN2i1TC51Y6GNQ+27na7xGr1Tcez9cptjYQz5ctF4n45hfOtGft9dxYUH7M9NpsP7nTi0GHIaRWSVex3jcTsuwskVi0O8olWehuIbZ4YKdvqE7Td/9Kw/JxGGI/oPLjWFtMgMY9sOvMyiHXkyB/e8d4wJIZhHrRHNxq47mSHzeuqDPLUJhQ7tW1TfmKrGq75thNnHtOy1nzapw7DTzzt4DASoIlMSeDtEj9vt6AFdmX+wWXJXPfZXwskdBC3uybL497GSJc3fJSa6hWTeV+upGPRAUVeuWilOc/yOQug+hmwQIYhq2UmWzazCcJPPQnkHSTEpGjNtp12Vu+0UV/Urcz3uiy3NUsnt+BE2Njx0w5s/rssYU3B63PPv7y9g4SKl6zf3JZOh5tHSnLmHD9HonVLHAAt2foHcjl0Oz8VkR2UMBSWj2TZqHnXpOrodijaOaFqxewayTUl875yDVm/5ZVqGCmbUNRC17Zve6rRclblMAIv+KP+zr99kKcU1bi2FqH41ydb+b+NBDgvn22zHdje3fcxpwWHprKeEoY35yVDDmVKY2gXLmdN+9igu+YMbz5lZaD3kZD7B2ZBHLYZ2DZvfNfSYqUJYNiN5UIaZG0R8bwYXBf+/4zekPQZJBYP3VCV5n2ihfMMz1XJ/r7yKS2QmLXGWe3l120fO1C7o6fPIQFwSlgvO2XODD0q6pOQ4xeCRRDkJAwDDhUo73FrAmY7VPNNJHSNhnZaWpvpk0jI7TgykhgG8Cwb6rX1E+eGDV3LLYQzHuY5eS9MkMztytngVsa4p3H9Duxf0NOnkWjJQjCgNAzGNlynP/Y06wsg3bZdSfNwnrNiAU2l5X5RtIH+IBIdWRO3MnkneLgiSAA6DRbU/LbWIXRNT/P3Xa+OvgaJKVnpRpV0ggEWNrvc3y2fPlGsXRnBU7DfjLd0WVaLYWnnNbT89DNPvh6JzbL+pO0fAD/EfD7a7UkLkqoS31rFvCx3XZZ6YLqAKkXe/RMjVvQnILHlabC2OZPca5cLGaDrJRR70qbMPbDO+bQQnzNWyMqiMmCorT90UAYZF28JQ+e21ZVni/4MJEz5zTXpRIra6uZAbI+5p74eQPJIHdVwfCyl51dhV24h3kSvnejaFv0pSOyXd21RO6BYLBC7qqpQbqTsbEllaL7bs/r4Zd/+JmaKeE+yX99I4hNsyvUeoq4/ggfCURx2krFiMAF1eBYi1xwc2q5qMdMnkHjhLGufiNlCwiCDM5K11O/Z2FMa9n5lYLinzp8twtzO0Eeakrqwh0gZXzza4ZNM8T4S66bcy/mRdW7LB08cJ3f45mkYGnKFkA1C+1SAaEAgaAsPGxfU3XcixU5vhYZGeh+JRa94B0XBdY6FTC3rHzNwbEQ9WajVkmnF65+NhslkuUCoDlHTcy665oyfsu3ejFkJvTCTAI5L5cPy6Kz3fliuezUfp2nlnypeAVF+uUTa1ZYUt24SuuhW67R/an28jcS0SR1yh10OhIyNfBQKU/PqLRU/jzkQNeXnkOv9iZEZFVd0aTBTn8lNeheJWab4PnnNK3yilbBuSJt2Gfd25lFIy0o/qWsSq7wTRI5UGLKHvodmT801EBFeYNWpm+ITouJdJKa93TSyQHbmo1xxZ+a2/MK7wOcx79y6+bSkSt4+aDe1/Lt1vh6IAcrLnttV8okn+N7ec97QwLtpZHz4p9vVsLaP9RqQNpT+DuRcEaaklXaMRBE9B12ChfzCINw31qTRdWsrgeD7Mbw3kXD7hbmVVKB9X1PmzkTnTujg/ExWkbc0U90gHpwyY337QLILede0JXvfOX8TiUFebvUxIMPzahxKpuPfhsK6a960SUBzuXuEuLtma7tlzlE/d57GpqH3kMhHS/Zh5vUwNKTsN1PJjR6n83ETTT1gHPxqW02bqt6N9B4SExXqmJU2NMYuN1bvVrPfg9SOqOPHtyO7byHBZruJjYfh3HTHxtwHij8bkp5Qv1kyVL/vb37bVLetpfvUjDU/mMwhJiS0PRui2LeP59M3yLored61Yls9xWGH3uGJaVU7DhEz8rrvmkKZuq+gT7soS+JdN/qzAnzV/XSb3kFi2LKPbDcXGtKMhNET1bQd4fttCg9TN6Jfd/XrPffjHSR6eclVXv7GNfHYlmhttHZXo9vt/vwOda1Kup3dqy5Qm/SGnCBDm6jWB9CWq7dHMqMiOC8YyT26EeUQDf2XmJwkwyNLDPQGEmNgYk9D1Ru9+tFM0OZvDXafrKcSFUhFTMycqaPjSPBxns3bnlvKgo0lOmutcmDf/XuEWqGp9Ch/SyMdR+LpgOzUN1SNuNdyoH441VbY6Jh59lmyvw2X3n9Q6JQOI9GI46jt9twMaRSZ3YjIsPtW0X18ud/76X0adx3sPLtuQYeRkF4hwH48LuzaLPXdrVDJRJCZHmzzhyjvWWGn2GdBR5HoYkYwHjlu1ed2pGjzaaWjoPhTkOgbGbUPNDtMR5FYeOEQc/9k9kYp3hIAcJC9yAgYbtrcSSMJSfIGcmakGUXZ9jeK/hQtunjayE+yuQYrdN/6eITJdHEhkiUVklRvhjCU/Sb0m34AAAVlSURBVMsFyQdlUfVDUhTZ2mdk3qS5/56tchCJeaIT3neUHyzWDw6a0Gh4mVjnjZtYN64UhB9CMb0XojiIxHPWw2C3ggfn9mZkH0ZdptMU2zzUlawlbdU4u1eR+5axfRCJeTzJ/Fyenqwo2JHbVh7R2loVxfSUdi5cQ3Z9a0MroMbZe7Dygo4hkU5nmB/Ig6faJxHO6Vz71JSiaS/IwPf9JITBiHPAm7EftSMudd04NVAi6DYvcDrQMCwF6ck++b5vC2p/2nZEl0YfMqkfhQT9Bhx/107UIcEhWHet3iHViePN5MCBSJuheeRhb09VNU7PURtltAYJln8iKKqQeCOAl9k5vus+QLPgjGH9H4Z8+ZjV5umbZKim6vFTDu67SDi/aqIJPIHq9DoDZ3DKSr15d9jhWgVZbuhiYPc/Vv85Oc+bSACnssDDw4tAZRjJxF3Cik7J4Et5UZM4FwSHNfwKiazMLcB0/Ys2LZfjZL2NhKSG8rkmxVRVuvgNCNITBlaGMXbk3TB/ZpJ9HglFJ//O1y3qvwiJ9DNIgOU9qSdSnpu7fI1KUjGe57+k3f8AjW/81gYZ6nwJO9FlwOz2NUg4n0VipklZJSQAJ3A2kVlk5Rcua+nGt+9HT29oSVanwM7IPGL2RUh4n0QCPeDY84rZ4JysIxIWUU3gm8ljYu9Hz28Ug77wThey52uQOH8SCesCkVsl7Y6LvARepZtE7GM/T3I09PQ4YJO1ZETCW9liX4QEGpCo3y8bfPK2e6HmKdY9sQ8YJKToHwRyHImtqpPKnhoMX4QEjnskosOjnJCK8OIYmfs5ZiSWTfw65fo1SJAMTTaSfhUSbo+E9ZlktdQFMALuRiMxeLu9nEdXbb1EwlJPdOmef+VNOH8LCbVroh4iRfevQULouA4J5+2GDQAEuSwbsS7nrVAASb1TZFe5fArRiERc87ZJqAxGhWWlHvwzfryFRFvOPDys4YuQyHy5d++TO4aKSAWXhDG5WZv8jNxvsvIOniZIPJo7T8vIjxxOc9499Pg+fLzJE63N3g/6i5CA9qeROFMqjGr5MFcYbabdav/bqfRzKrh6ROLucEIYg8SBRci6zT334eNNOaEOGwKp2jjm+wTlA7c+te1WLtRIrSi2+1iIh+AG+xzepkjojhvf7JGAEWeELXr6px6gY3HE88uQmMUnjE9/nRN381D2kDp6mYZgCux0cqvtK8iaKW+PH/dIMOqHtCrn4QbuT+XSFyEhZPoMieaIBsG0dl4kz99YoF6aZABOblVxBwkQD0J6krCCOuCjW7K5OuZ14F+KxDRsUDsfm6d2mB/WxPwYdIQQYxpAlQEw3qpCYgiAX7AFyBkcRWJGX4UEWSJhbLjdUhj7z62OEvhHFKdP21CtuUAiD9rDXPZcAPXfgERLy+aYigJGXaf+I0prgQTKw5BQOuwiug8fv4HEffeIQ8RyPRJ1fLUB5BORWH8v6XNjI9ohGi+ksbv/XYwfv7E7/DNegoa4QkIXQMFWQ6IfCU4i4AQkS/9duuTdwPmKJuwftYH/SPxrX9puch8+dlPfd1WSwFdHqcMimQlt86EjkQ/NdT5BLDQh0VKQORg4EDif3+s3Jc2FrAlpv2NtkMqcf8XA1Lbm5NhSO/JwsV36M3bpfhHVtUTi1W77HCmT1GAsqxYMU7VFs/qG80jrB2f+91CLRKYqFeq6bh8hoSgMc1mj0K1h33VtLUUrmq7hgYSnWYZl+dnd738BBcXnW1f8vSjn/49ES4QBmrone8nc3R+2fTr1mW7Nkpj/fRpJfHQyk1hqp/FkSlsO15D59ZHcCYm/YgPNM/s9LbP+y2+Ju56M4pv3PzrCHZs/CcJsAAAAAElFTkSuQmCC;" vertex="1" parent="1">
          <mxGeometry x="1355" y="90" width="265" height="190" as="geometry" />
        </mxCell>
        <mxCell id="hAMQrah5wHO0PN8DFBSk-13" value="" style="shape=image;verticalLabelPosition=bottom;labelBackgroundColor=default;verticalAlign=top;aspect=fixed;imageAspect=0;image=data:image/png,iVBORw0KGgoAAAANSUhEUgAAASkAAACqCAMAAADGFElyAAAA9lBMVEX///88l9rZt0x6Xrz///wfjtf4+Ph1V7p2Wr8ylt4zlNlPntwokNjY5/aiyOqYwujduERxUrjt6/WXp52vodWWeKTdu0Ojks+niJPe2e2gqZV0WMHDo2/buUm2qtiqi4+GpKz27trbvFzXsjuPvefl7/nq2Kjo1J7Esm3T09PHx8eysrKamprd3d28vLykpKTq6uqEa8CQkJC2traBgYHAtd359Od2dnba2tqIiIgAh9WrnNJqSLVxseLfw2317NSdic3B3PLhx3vVzerlzovw5L+Pb56dg6rbtzLIv+JoaGhlQLPIus3M0cfh0bzYxKfF0tZYWFh99J63AAAHxUlEQVR4nO2djUMbtxXAlQQeaz6BpdlYl2wtTTI9fb3qnJwuZeu6dFvG2q37//+ZvTM2hUMYyYAN3PslIfbZz5J+frqTdfKhlCAIgiAIgiAIgiAIwoggo/HohlNKDx91xs9unXnoBOByWxdF3C7+/Ogp++mIgkKXog6otMOktAd+9P1fvvpOKUMKUBMBaUKt0LNWh6A9hanCvz54xz+DVc6D1oBESPy/1kpjAu347nobeRV8v/nwHnCDFASfjDcpeB0C+zJdb+rt/vbf2FRE4zr0DgP6oCNao23AjoLpU+bjwdaDXQUxUKDengkWXXSIwU2ofyVv7oCpJ5uPH3H3imwqgEefOKFCUEbHaV96s7//wzSngrLaax8weTT8ROyS421Nr2DvYOcb7ma2sZyXSUV0yiaKhhptVGiapLxZczOvgu+fvuafGLlXWVQhETnuNcnbbpoHf3+zMZUAoWOXpLEzoCE50tZxP+Q+y3x8t8svAQq1BcNJhWi4X3KWAvc/MCGF7C7sbqBNgNNbpvstpe9AP7pi4OKnCIJwt9j99nkxr9Zd2bWyd7BVzDfrruxa2dt5UIyYElMliKlSxFQpYqoUMVWKmCpFTJUipkoRU6XsHfyqmHGb2v3H58X8c92VXStffnpRzP1ZzMfflPOvtbbuKvly/34xX81iXu0UTz/sPF9r666SpUxtFR8EtsSUmBJT5yGmzoOMooCAsxOKYupcsAOikGxztNhGTJ2P5VyKdNjO7oqpc7EA/QISbPg2ANSZgp6NKlMbcLM531Sj/CSmRoWjJQ/XnVN35xyh9L5SxFQpYqqUVZmC3QrWJWMhqzK19++dYrbWJWMhy826FE+THs+67FbMQj9Yl4yFLGPqx/Jp0s9/nMWM09Tb8nnST29nMeM09Wa7OOSlmCpkW0yJqSs2Jb2vFMmpUiSnSpGcKuU4p2rWP4zS1HFO0W8rWJeMhazKVM36h5frkrGQVfW+9xXl3D+vsmtlVTklpi5AcqoUyalSJKdKkZxaiandvXKu/yzFTe597w6KT1IcfHvbTV0qp95VnAO69aYul1NjMnWXcurTdjHzFozGFNlAjZpdHoV+XUG9qdvd+7QJydrZFWOebH5WzL16U7c8p9oJ/53defL4XjGP6k0d51TN/vDGmDLkMej+Ak0AdaaOViL2FxQrZf/t0YrHSlPTmI0qU8uuklxkCkIDqGaXiFsmp376XTk/zWJuZe87xTKmnpXv2x5/fRlTB1+UsoIx+jKmnj4sDnn47BKm/vP7cv47alNv9l+Wsv3DuE0tcYwVU2JKTIkpMSWmxmZq9/mrcsZtquIKiTvjNlWxTqvuuxRiSkyJKTElplZsqmI96RejNkV/qGDUpt6Xn7988WLcpirKqVt5K6bElJi666ZqVorMWzBOUzdxpcjNNFWzUuSzUZt6XVHO8Zqa8h67Pz/fN05TP/+xnJ9HberpNa9/KDAF/R+4+aYqyrkeUzQhA0FMXWzKWrJxtsRKTC3ANFG33ZGpjZWNElZmqnh9zMvti0xpbJGzSi27enGjytRsxWOVqSXK+XpWzvs/VaAuWL3IOypwyq12P7WqnHr9oXyAu3lRTp3iru2nasp5KKZKg8RUaZCYKg0SU6VBYqo0SEyVBomp0iAxVRokpkqDxFRpUNZI/ztBxNQgKGvKRxfE1CAoawriREwNg7KmdPDZqRgxdZZmktsqps7mFEYxNQjKp5RDJ6YGQVlRGK0RU4OgvCmTn1sXU0MoWBklDIOyptJEaTE1CMqaQotWTA2CsqbIdCimBkFZUy6m7HYxNQRcK2P0YVDWlI5aZl2GQVlTOIFGTA2CsqZcG+Rz3zAoayo5lFmXYVBOCAbbnByjO5vEVNaU8fFUTkWKd3Od56VNgTYnP/eBnf+W3ycfNouZt+BZecyHeQtqynk8N1UR88tKs/KYDzlTQ3FR9TnVL97bqGB+ucIVxdSELF3ORar0JPvZRhCEdeADDuf6wATIfQbS4dSBlIbzzogKptegDf7s5L0LJ6Zfdb8TAB8o+1HrRImk6ORLuYKdxy+1srNa9wVn556q0AHAGq9Sw8dJ541W2G9LbWYOonMQjWs0BkLwgNEQ2wE0zhigpJpWNRPwBmzGFKI21BAFVGg4FHhwB3S4uOnGKceVQq6W759pO66eXxjiJrqvguM2ReW1Uk3y6ExbIyVLf3HrzgU6DKFLroVIgQcTlnJzyrpLhnTkZGos/g/9BCLGVrdguSoNm7IpWHATl8sp3UXXmqh06wJoq/njqOkgLj4INa7/woE7pJhipxVFSzwkXBgSvKWOrMFGW7QtKd91MKHDGilZfOgz03P9ySrnlW/7Rnoe2efaMDGUkDpvfOtb6lRsgnOhH6Txu60MH1q5dlbnc0qpNpH1rfbc/GnXpWCzxRzDSasxcgUjBgeqCY3VnV4UAlwxrpE1TqNtTB9EFjo1WVxQCTYi15x8/y4Tv22cpilaCDqceelgkazWnHLacReDEDX/I9ZLynCOIATgevGWzFRPStO5ahapQtCJUBGnrm+yJ9nm6Gh1MqrhnU/g7Ocua/gNPed801FEUs5MrGsm/fM4xRUSebQRFhZUDxtaKo66S79lVwd3Dc6kay4ke8wrgG6QqOm3PS8ehQuCIAiCICzg/0pIOYTdd+GEAAAAAElFTkSuQmCC;" vertex="1" parent="1">
          <mxGeometry x="1350" y="470" width="297" height="170" as="geometry" />
        </mxCell>
        <mxCell id="hAMQrah5wHO0PN8DFBSk-14" value="" style="shape=image;verticalLabelPosition=bottom;labelBackgroundColor=default;verticalAlign=top;aspect=fixed;imageAspect=0;image=data:image/png,iVBORw0KGgoAAAANSUhEUgAAARUAAAC2CAMAAADAz+kkAAAA2FBMVEX////x8fH7+/v19fXu7u75+fkAnv/V1dXIyMiJiYnl5eWhoaH29vba2tq7u7sAnP+WlpYAoP/p6ekAo//g4OBgYGCBgYF9fX328/Dt9//4/f9vb2+u2v9ZWVl3d3dQUFBISEhmZma3t7fE5P+fn5+Ojo7e8f/O6f+i1P9euf9Js/8rqv/MzMysrKyEyP8+r/9Wt/9/xv+Qzf+23v9xwP/n9P/X7P+W0f8eHh4rKyufsLwAj/GjxOEriMfEvrmq0fLU4e3C2vHI2ulogpcAcsQAc7nM1t05OTqvhPPtAAAQNUlEQVR4nO2dCXvqqtaASYw4NBoxDnGuWse0ajXas7/73buHO+z//48uJECIkja22s2tWc9znhM2rACvsBiyoACk8pqUTPzfny6EatKo3Gd7D70/XQzFJJ8ZlpqgbwQhM397YsiwPPbKBdCkUaXBXSgPD0KgchcbSJQs6ctEFTFwtVw6ZQmUAXh6qoOeSalUhChdTGeKgcw7YvS4iExs4FNU8jIqj8MJKA9ZTIRKJisENBAb0JMk0zNxqSItWIzJRlTEXOJVzJiIeJWyjEpUUioySanIJKUik5SKTFIqMkmpyCSlIpOUikxSKjJJqcgkpSKTlIpMUioySanIJKUik5SKTCJUzETVBZlkVM4vb0Ql8yepTEyNS9XQhIAWG0iUzKjGpSomUxFzeYdKXMEyo3N7kAjeEH4rPQpe7GhiTCRZsu4QUTEjKolyMc/P5X/NruhK2pU/TUVNa5tSoZJSkUlKRSYpFZmkVGSSUpFJSkUmKRWZpFRkklKRSUpFJikVmaRUZHKDVP7vHyAiGZzSIK/Jaiz/26My/9v/izGgOBiWR51BEYD+5I7+281RmUFkt8Soci3Tr4An3K0GT0X6b0pR+YS9uJaNrO8gIsVBDZR7OtDvcvc0z1KjWuRSKxavFLiaSu1MlSVCf4/alVrPAHcTTNEYgTr9Wd715SM2JvLDRz5jfIrKK82b/n8F4eJoDHrqNEf9Rr9YNxvD27QrOwvZ7ZiReSQ83xSVKUJwls5XojFtF1nzdBZ3FONB6IGUSjRmbiG3DVIqkRg8fUNT8pxSCWPI9G3nP6dUwpgltFbBc0qFibOy4JI+p1SYfBfWhCkVKnj6Zs1YIKVCZe1P36ikVAJp23AThlIqgUwh3IahlEogY4tOVXxJqQQyh9YhDClKxYlTuRaVZ4iErVolqbTX9lIec7V92yV0hYhkVHQumhk+64YeG0iUzNTEiCx/3FsItc5TeSWXTCaBio3ntTyQzDc7m+FiGOFzppqJDWhJkmmRl3EV56eFrLEjVTHkKq/lkkRlj+BzmKF5tm/2Z/jxdy0EVwlULufHP7PgXIhQ0q5sIUJrucqVrG0XWj+FCCWpbBBCsCWLuRaVFYQ/hAglqbiYijWWqlyJygLaqp9uaCO0tOGzVOVKVFy4FqdIKlLZW3C7Rq5U5TpUWgh6qlMZW/An7uh7mcp1qOC14YvqVPCa5Ie4Wrs+lR3OTXUqeE1SbQWfq05UrkPlBVpTMUZFKnhNogHBsFyfiofXhqpTseHGwQ2GG5brU1njtaHiVHDnWTlkG6grUbkKlbYNF6pTOeA1iQMEw3J1Knv8O6hOBQ8IYzwgLJEtUbkKFb9dKk5lC6295v9veqpyFSp4KjBTnYoH7bYhLu6vTgVPGVuqUyEDgkFWQ9gEnqhchcoS/w5vU9Gf8mDSZzCuuOskpUIGBIOV9XWVC1Eh25NvU8kPyqCeYy8rTYDJxdDCZ7NqxgWMTJJkmnGqksUDwlavZk0dG5ZDNokKfXH2jFyCrGiqPV4b6qKKLt+hfByBzhO7N7tUyBhcqtXw2SgasYFEyaQv+2nB704xeNg6iVTekYsY+EXWhmKM9iSlkh+ZOTCkbeqT71/pWtbBb9ttGy1fV4l4Icc7ub/lhbyDZIvrbWubL4Nes0kDn2xtV9BqBVXcUMNyUWsrfCFkKmQqkIQKuWqa5/LJVHwWfub+NAJclsrOEwJUZeHTV3tkdsmA4JcXT/23xyofpeKKnwgNluMaKE4FT1M8Wl5mWC5IZW7B6bEKXht6QHEqU39KG5R3AVEbXJJKy0bi17BAhbquKE0l2JoMyjv3B4cLUnmGCC2OVehmqNJU5v6ikP6Klv9h9WJUpggLnTCHKtR1RWkqHlmpcTuIju3gh6jgHrlGgveOQXP0XVeUphI4ktAqBgW+FJUxRJsxFAxLoLIOXFeUphL4MtIq4nnu+HJU1ggeDNFX0hByVJpKC/mfUmkV9xYJXYhK18IjsLMUDIuvsg9yVJrKIdhrYlV0yfePy1DBo7K9B84LDF2wfRW2u6UylZ3fZ3gVPfL94zJUVnhlDIAzExxrfZWuZF2hGpVgpcarSD51XoYKHpXJMTGNr8SZCs1RaSrBSo1XsUVswUWoLCCdqy1CH9LYlblqVOgwyatIDMslqMwgW1PRCTNXCdaGSlPxv+IBoYrkw+olqKzJMWU/Ygq5J6K/t4Xo17gPUbnuXtye2kJexbEFu06cSnIfSn9UphEu90QkKlPfCIPzqXzeXciOv2mrCRcb7yHynEQXG79yF3Km5SL0wwkinAXCzY+lcnbQ+u4cqSS8Czn0Ws4ITtcg6g4teHADLZskmZkR3kycroNhkqiwCNz0bSdWJZKLkErMhdyFvCVNkJaFTJh3gKn4rivgWEUxu+Jv2oJXfD7f8z0ouw9GZRox5d/1iYrHhiSFrS0eJnl5AyGGRUj1Hmub9WDE68NlDkNEZc2ONShMxaaHZ8MqtiEU9oneQ0X/CcOJG4nw6LzNV+GrRXWp8GFSPKPCPTaIvIcKG5VZxI45DBnUdeVERS0qU4sOk0IVt5FTXu+g0hUcD/0I7jDkez6wzqUulR3zJxWqOLPEc5LnUxnb9EqIMGKNuPWa8yW0ulTmzJNHqCJezgld6Fwq46WFrO1RxIpmY5C5s9U6LZhaVPD8PhhBxSq+WML56/OozDAT3F3aRxFjuqViCO4gClPhw6RYxTYSGss5VA4bzMTyDidlYeOaEQ56KlPhw2SkiqtwunEGlcPCgshaHGQ+CdSwGP6xBknBlKKCh0l6/iVSxSoK/bQTUnGmPpMNsaQSXyc6rhlsQ/S4YEpRCcsYreIK8qMOyagcPIiZLIPRRUJlFswADLYhelwwpaiEZYx2h5bFG8vbVKbzhW0hZK1ZdSVUyLksX4VtTwKFqYRlPDISHt8/e53KtOvZFm4mMGQi9xbcIPJd32Df948LphSVBR8mj6hMLbZTFE/lx85zLYsQgcvtTyFCRiX4/mEIO1DqUnH5sfzjAWXBpqCxVLyAiLVejdvRexZkVAKHISP06VWYSljGk2HWosveGCp7F1tXy12NJRNVqb+tf2BaE29deYPKQ6eD//Euxgv5ilT2YRlPpmQb6ksgp7JDCLq7VlSFiZTKgsz0HeG4zVtUdEB8SodVFv60+21n4VnDExXc5BcSlUBWeK2ziN9JkP2Q/nd9h6+7wNs9aPSEXzWY1GkwehdywouFEyU7SoVN4M9YlTWyfp2o+IH/LLFB2SbNhQZ+QfRcrHkI1SQqVZkX8gD/Z1ZBh9L/tLay5etXico4+HZx2lZmLoT2LGkuPMLGhsURb115qwf1AOgb95UhDX+aXVlCvgqUdAcXEWYndmVOJrEtuUog8tMNeArUckRnlrd6EK74RNdrLPhpVI6/i0dVdr4vS5QKaC+wSVnFqQQip0I2uH6gmHsHFBqZ2+H6VVpFl9yzEaHiTPGAjHbxKr7IqRCHoV9Q+H6gJpUM/7YJ5FXskplXhEoXm1l3+oqKLzHng/C09juMublDHSqOeAmAtIo2XrwIKmRTyfLar6oQiaHyDNECWfJbXhSi8iJMHqRVnJP1P1OZYosicbSW5BJDZWxFnW8VpeKxTVsQU0WyVUmrOPXIptJScqzlNJcYKi1skuLuSVKIinjliryKL5Cc/8aWkm4qRe7aO/vc4RpT8aQxKlGx0bEn7LGK31jA/plttH3sNOYW2+oXaYxCVMJvmyC2iivcWFaESbCp9DEq2LCIN3KqSeVgnfiSn6hgW0CYuDtJLmdTaeM3TaUxClERNpbjq/gsMPkoFbC07ePvZ1TUoSJsLMdXcW+5gjfLB6m0Y1XUoeKFG8uvVHF8lVtpjmP+LJXIOUkoTB7it5C+PpWp+DfREDw5+yZR+fp/7/AF2puXGe02+8h13jdLpbUhCxlo2Yv5oS06Hb1aXpV6UOjImvQu5LduKQZjGyJ7Q770QQu6i+428LR9682Ru5C1y92FHAl88C5k4WJhLdldyEEyRyMTj+UPR5u9LCkZvKp/TeWMi40/rPIpdyGfXpg+9bfl6RjUGm+XNp6yiq6S8T3oOnchg0+xKwREu92azsbd7bN3/P2qiyG4Y9FItMartXit+le0tu3xs7dYujYxpn73wBZ1ypO1PfJRi4CKmk5xmP5yVNqzZ5eg4EJGGmih9dYfhJ0D2YEO1oEK/e2Gq1Jpz1Yu8Q1AtrveLJ5furvZtPVjvrF9Pq43br2QT8J0D+02qBy2LnGpgevtr1Z0NdraeS70+xISdqC/DpXYMejXy9pH4q5wS3BOk7Vn2zXpS3Y4WfsyVFp7IRC+qL3bUCSz0/KGyabzzVLY6PkqVKau7e1452Avar34xsR9nnEnsw/covdqeVWkMiZ/PsCyvbF46d/h2bawfV2MRVNyQ1RecIPAtgGDCZqFxruOvZpGZ7A3Q4XMvuBWnwZWlYDR/K6Dx5xu+7jut0Jlv8azr7FDRubDlg43NvS7zml+t0JlRtYuUz5fwbM1f9aKu44svxuh0iVnBVqRWRwGs+7Kv+nfCJVn9neOInPb2LfeBJU22UwMpqRf9S/7JaSS7+fpU+mf68BLkchtU8kOtAEzrH9D9oYv6MREZmwgmyyZ+LaISsQz9ZIqkYhYlXwMlVoBNJm/7b/QvxuTQiCNgiAXDSikMunFUCk2QZ9SMf8zL+VuTDQ5FTDg92anEopWzrydKJVUIqI1hedhnXuyg8d6XxgFcpPwudAX9mQKwzx/fhoO73ggP+yHqe6GD+xRb5igWX8MAhmcJsei8ISyXG/QQHkE7uospoKL9UBtpN40sx02sagWQLXDjvU83oFGp5ejZcmDSp2WRi8Yep9l2aiXzWGdnwSSitm4F8r+WOzwQFMv5HggWxfg9XLhaFh+qIkWvRlSHWrNEs+lB+ps+lD5rT8+6MFBHL3xG9SGhSCiNmyAHmgEmT4OnvQGuA8G1KdvJVD6PaL6f2VLDZqN1scKj/kgn1wP/1iZYVC2/H0Z3ANat7tvWvkJBJYUo+89PRYZ/DjpRAJCFUd/hfOgSS58TaZeCU31w6ApNJxHoUU9/P4rtF2/c984r0kW/45DGsD/z7BXm5h87Z420Bz+nZssn0pOb5ZHTMXMN3lr7YBBv0dbQQ3nzn/J/AgMBiyXgpHrlL/RwF2lUuT5x4lAxeiFrQM8gTKvb/V351uRp6qBOh/b7srsB/HfVQyff/vns1gZy0OOuJDFFWT1xaUzGBXcmUd91gwf77Qy6FOUldJoMGAqdTOn07YG9A7oZWu0sZUmQB+wXMpl3O5ZA21Us6M8VemMcIfUhd4tFSG+0JmEbaXQH5TCqGrYg7T7RqhjDDrcYvhnj0L95n3IaFgI4Rcy2UGf2Z8IlQb4NinQijziJt/oUUaVkm9oqIqZHwxpANeuPGS/Za0CSryYeFo/KLADc4WqMegHv1H+vnJXGzAjEyvCjFk3xYWQkY1JFllh6FpMoqi+EUmkG0Ig1NLxQigjxERSifqRVJopBKIlECNoOXEdTUE/lVRS+Yj8F0hLpI07/konAAAAAElFTkSuQmCC;" vertex="1" parent="1">
          <mxGeometry x="1349" y="840" width="277" height="182" as="geometry" />
        </mxCell>
        <mxCell id="hAMQrah5wHO0PN8DFBSk-15" value="" style="shape=image;verticalLabelPosition=bottom;labelBackgroundColor=default;verticalAlign=top;aspect=fixed;imageAspect=0;image=data:image/png,iVBORw0KGgoAAAANSUhEUgAAAQUAAADBCAMAAADxRlW1AAABLFBMVEX///9BmNfYtlV6YbpxbsBBm9nXtE85ldY3lNb7+/vXtVL29vZ1W7h4X7r5+fnZt1GlpaWdnZ3b29vj4+OSkpK7u7urq6vPz8/w8PBzWLeMjIyCgoKwsLDh4eHr6+vWskn29PrT09PE3vKy0u3v9/x6enq/v79QoduCuOPi7/ny5smuoNSUweZhqN1ur+CZh8rf2e7o5PNuUbWJc8HS5vUkjtSCa7/iyIGym6b59Ofewnb17damzevp1qHv4sLUzejJwOK7sdq0p9ejks9iYmJtbW3cvmiRfMWci8pHR0fl4PHXzNTNsH26oZidiLzXu3fm0JTVtWeqkJ3t3bHIrIepkaqIb7SdlbFkpc6Bq8CPqrC0tpGquajItG50qMfHvYSVtLbNwIOxspm3sYVy0pTfAAAK5ElEQVR4nO2dCVfbSBaFS6axFhtrtWW8SDYE2SHgQAghNqtDEOlMFjruWXoyPZme+f//YUoOCYs3qfReSaR1Tx/ch5wT219u3ffqaSMkU6ZMmTJlypQpU6ZMmTJlypRyyXLSnyA5tXZ3Ts/Ohq+eUHW7W1tbR+tra48fJf2xeElu7Z4Ozy9fvFhaKRZXi1Q/CaIoSZIoCMvLne2t9cePfnAYrZ3h+V5xdbW4srL0XT8tCzcKeCz3KAq0z1C1iVFxiKFptuMRo0CIrbXR3u2+WrvDp0tLxeKt7z+FwjUKUeh012At8bjXWQte65ppVaknS3ZDs9sa/Y1m6ma1XW0Sp9o0iNkugL7vbe0ML4urEwBmULhG0emuA4LoSqJI/7qyV/Zq1AuE1Ije2NBtQvSK7uhlrUZqXsWyN+wq3Jvekrw73FuZ9MACCgEIUeiBOaIrCdIj4tQrdc9ulgldFkRueBo1g+5ZhdcNu11rlK2K2bZMoHe8o9PzpRkuWERh7IjtLZiMeN4Rj+i/iGlbpm4Zmqwb9PtX6zr96VQ8jZritdnUdbNh2SDvd1u7wxfF4hwEiygEhpC2nwNXDZmU7v+qIDd1+ssCKYH3L61XL+baIAyFMYjeGvRHm5DsoawEsvtkdXYaRKEwjkrgksFJgQ8WIwhJIfDD9vOkv1Jktc5mFUZGCpTD/jZeL4Wymdl5uiASGShQDstbMT5T/5D+kMuWYVoNmoNWzWw2SDtooBo1uwz1zW/UOn8W0gfRKAiCtLzO+qFGrjuQiVwo1Aq0dSLVoES2vQr9E71MCvWyUTCIAQjhdC+8ESJSoH7oMqbkIJ9z+4SYFxVSuXBItW45WmXD8mgTWSDyha0blZIOtjBaT8IGAhMFQRLYquax6/rjL1mXyXgBVC1Stiu0d6w3iayTilGRLSgKby/DVQZmClRM6SCPjqkVCrpVsS2rqbWtmkG0Qo1SsC9qbUrBrNWBKMjDiEZgoiClu2jK55ESgZUCLRYpxrAbeTUwUqAc4tRMVO28iLwamCkIEmutQNbZEhMERgo0HNgwtEvEDvbOtkccm5h0E0n7hFK1aRhN24w9YDlbYYPASkEQozXUrSdvduiLt+EYDc8mjm57Fc+gJUKukZ9Nz242PM2pVg25YJpVkxSaLIO3IUMuxqMgiJ0oGM5Xi0st+qo5dqPcIGTjwtHLG8HgVbfr5YqhlW3NM4xKxatbdc2uNxgaySFLLsakQDFEKBV0Z/PsKwVi0565qXmNQqOh0Ua6fOHUteqYQruh69QWnlluWtEH06+YnRCHQiQ37CytvgpedadQtpyyYTUaRKvWKIX2a6JrJb3saZ5d06xgLGmW7YYWFUIMJ8SiEAlDqzV+oZsGGokOcZzg/6t09cs0IUukUJLpf1WH/pBLcqnqRO0jh4y5GJ8Cjci0FMyzOE6ISSE1GE4Z+wQYCoLYSwOG3ej7J1AKtItM/th/6zImhNgUhP2jpCGQCANGLAoC49wFTrFqJBQFcRlvOB1Gp3GXA4wXxF6S0dBi20uDUxDEBKOBabSEQkHYTy4azgCcAEQhueZpN34yglGgXUNCFJ5ArAcoCoKYzEA25vYBnEIiawKkPgBSSKZOxBmsoFAQRP690y6UFeAoJBCQIK0CLAVB4B2Qb6EYQFIQOZsBpmuEpiDs8zXDWzgIkBTEHlcKb9JJge+kATAVYClwTQawXgGagrDPr2cAaxvhKUj8zmsAGLNhURAiHcGNpT1IKwBTkJhPiIyoU0gG0BTEbU4UgOYKOBR45SNsNoJT4JSPf1l49UuiFDhNWw7evf9QXE3lPuKreGwmZF9Vcx/ff9gLcx1MEhS4LInDHJXi5qgjVkEcAe6FDgcKx/ncWKqqDKgj4h63R6DAoUrIAyX3TYrrv3v/5llMEOAUODRO/RsIXx2hfozpCHAKHDaWJ27unhSVOuLpM+aMgKeAXyuv8vcpBBxUlzoixBWkXChwqJUDZZLCN0e8vGRxBDwF9GDo52ZQuHbEy+iOgKeAHgybMyFch+Uv1BGrkVpshBWB3TGMJsJx0hHqu5cf5t9sAJvCPjKF4ynhON0Re8WQjsCggNs3yQdhKASOcNV3n8I5AoECcjzK/vxcmHTEykJHYFDAPYhfCmeFu46Yc08WJArIRaK/KBxnOGJpjiMwKOCe/3gYmcJXR/z66cPM+zFgUMDtoSd3EREc8belqUsDgQLyUYlRpFy454jcr5+eTrlTCwYF3BOjQ7ULcx3x1wlHYFDA3U9N21FGd8TlHUdgUJBSTWHsCOWuIx4ehZCt4wJRR/g3jkChgHo2x0H41nERCMW/dsTDozBrxsKksSP2nqFQQN1IgFK4dsTfO39yCoFU/x9iRiHn//bQKMDUiLtS/ynBU8CtERgUPoNDeIAU8h8RKKS+d5wUQpFApRBvNzVD7r/B4xF3T8m+s55H4V/g8Yg7X2CdssyV+nkfmgLurIll4rZQ+d+3gZcE8p0pok9fQ0jxoYMBeQZdQugdqX4DDgbkE7xkjBY6p0LHI/ahe5SGQf0CCwG5aQpxzJpFig9MYR/5lJ4F5y8wyoUuErgQvp7zCU/hP6DBgH8pXYSD1hEo/BeUAvIha4IUj/kvoCsCd18dCKWHVn4BnbrhXzuF0j3CTt043Lcoytks4QU6deNxaQDKiEH9DEmBw2UiKB2DMoCkgA+B9HGWBBwEPtdaY0xgcy5cPOLXyUAoWwnAqRufa4z7CBAAp268bj6A0T7CTd34LAicKgE4deN0q0eUxkkFikd+N2DAaJyg4pHfU0Yw8jH/BwgFnjdmQchHxQehwCsbAx0iBAPI1E3kcXXxdyEM5EGmbiKv+5GMtQm/JFSAqRvnO10iHJ3J/y++FfAHjncFbwbl9/hTN66pEGgAvyZi9018UyEQ/IEJN+7UTexNPJkYXeA9Q+ypWxL3B59zxTWbFD/e5jqZ+2KD7ybceBSSeU5h2Otsw1OIFY+8q+Q3HUJTiLOtTO52+VewE8h8rHhM7LmdfdgOMv+F/STYpNZDINgT/2JM3bjdz3CqYOsE+9QtysMJ4QVbJ5g31zxnK9PUVwCjQf2DrWNI/lG+J3AQqJgoJPucpWsMgAnpdhiCIR1PJTyGw8AUDCl5wjdc88Q0dUv6IXTfNIDCwDB143b/54WSoWYN0adu/MdLsyX7UG6I2D0m2ThPqn8Ag8GNeKVEqiCAYYh2KnC6nDAWSKWINnVLUSZ8FwgGNTyF9FSHOxrl4+8pQk/dIj3jnqtO4m+twl5CJfF7WkZkHfpxG4eQByXS8Azr2aKlIp4dQk3dRHErzRCoRvEO1oSZuqU3Em4Uc1UsvgBf6qY3Em5EdxUx7LBocy110lkgJ7Xps3NQv8zrGEQJ9zpyUMnHOfZlMYeC1EnLMCGc+gd5Rg7qzCIhikcPxwjXOhmwFU11RjDQ8vgQUvG+5BFTPEyfuolCL/3lcbooh+h+yE+5fZModh8qg0DyaKBEzIfJqZu43H2e8l5xoTYP1IiGuNM3iVLn6CHmwYT6Iz8XISFuba5Fcbm3xv/ENSTJh8cDNx9y3/1t6iZKYm/9h7DBjQIQfj6MJZSP+5SA0OmuP3roaTBV/ZPjQd6lKGa7QlHyrrsv9I7WHlyDFEXy4ehq4Ps5CiOgodz6+vm8m/P9g+OR+UMT+K5+f/NkdHx1QGkoquu6wULxD65GJ5uH/aQ/W1L6IVd/pkyZMmXK9GfR/wH84I8Ffzi0zgAAAABJRU5ErkJggg==;" vertex="1" parent="1">
          <mxGeometry x="950" y="823.5" width="261" height="193" as="geometry" />
        </mxCell>
        <mxCell id="hAMQrah5wHO0PN8DFBSk-16" value="Our Customer Base" style="text;html=1;strokeColor=none;fillColor=none;align=center;verticalAlign=middle;whiteSpace=wrap;rounded=0;fontSize=34;fontStyle=1" vertex="1" parent="1">
          <mxGeometry x="890" y="10" width="350" height="30" as="geometry" />
        </mxCell>
        <mxCell id="hAMQrah5wHO0PN8DFBSk-17" value="&lt;font style=&quot;font-size: 23px; font-weight: normal;&quot;&gt;There will be text here explaining what this is for and what each graph is doing, how to interact with the graphs/figures/plots and the main findings..........&lt;/font&gt;" style="text;html=1;strokeColor=none;fillColor=none;align=center;verticalAlign=middle;whiteSpace=wrap;rounded=0;fontSize=23;fontStyle=1" vertex="1" parent="1">
          <mxGeometry x="880" y="650" width="350" height="30" as="geometry" />
        </mxCell>
        <mxCell id="hAMQrah5wHO0PN8DFBSk-18" value="" style="shape=image;verticalLabelPosition=bottom;labelBackgroundColor=default;verticalAlign=top;aspect=fixed;imageAspect=0;image=data:image/png,iVBORw0KGgoAAAANSUhEUgAAASoAAACpCAMAAACrt4DfAAACSVBMVEX////r6+vq6urk5OTs7OzS0tL7+/vx8fHY2NgAAAD09PTn5+fd3d3g4OD//v/r7Ov///v5//+1yeEhAAAAAC/u8PIAABIkAAAeAAAAABvx//+TZln///Q9AAAAABZ4kL0AAB8YAABSAADq8/3x8u0AADQAACHg+v/AwL8AAAhOSHmlvNns2sejeGTOqIcAACt4eHcARHTW4OYAADY3AAAOAACvlHbk284AAEI5ODYAAFX13LypkGvt4Mpod6P/9eFyjKYAAF3St5rbyrn68uSInrawi2ORdD6ysrMtAAAAJkTG1uhDFQCdnaEAP37P6fanzOKtvsxJWG+gbUs5D02pglVFAACGqcsANF+eg3hzcHXDxc7Ap5qhjHefqcOBh5VjYFvBtqdST0cnNEZUU1rDqXxxQgBkhK3jyqVzalxjU0J1l68+KgxQPjIiKDFMPSB9ZVEWGBtSJRtpdpJVboFrUzReKwAfVHlSeJdzTSQAK0eZeVjHx7YtEQAAH0hYNABhVFsAHlpARkx7UxoAIiswa49lj66Kqc2zyMZNYYZhQCMtLTE+KSmomoaQjomPhqCEe2mesbonMF9EHCgpDywtIQBnQjm9mmt8Sis8cJzNp6AkTl43ABxZNRmBmJk4Qk+PU0tqXXw3MUadwucrAEVZOUuqgUOCUwBtNilETG42W5BnVlGen5MVFwBrPRVVGwB5NDUhMDcAOkNXdHKrm6aWeW+aY01DN0oDN1mFWEE/PnK5h3aEjn4kFDJMKAA1Y3Cee4iUpIwFTIy4jrOAAAAgAElEQVR4nO19j0MTR9r/EDYsE8DdIIs/GkXKqvESQ0xLthHT5LIbiKwUgmexQIQgaARRPECCCFqrICJ8xdbavp71vnp3ff1x9fzeead3/fG+95d9ZzbBKtmdzRrqj9OndMFkMjvzyczs83zmeZ4B4K28lbfyMoU2vRVdKSpQoMp7HYRB/71EMaWgMhn+II2FUv6kUr8Y/BtXtPgyzVG4cxR+MV1GVSiKJrybLoNvp4cUhfqhW5VSU3a3e/Z+zwsV/4nb7W6LUowpjxHa8ZVhOoIKVkxsH74HJX3SyeGieDBQqAxGDL3BLLkXY6LjbR6dDlJxdLtOnVIU09HVFeayqGkfxxBhp8RU75558bmheqcb7u+J0haa5nqrN6Orhd+zDbUAfRsHDuKXadf6MId+U/glLgGb8IsIr4xbUfwBeFDne6ZdsO0Q/JAnF9oBW/pgP7kq2gt7DsMkeYRyIdjT1bPvWVieFyomT1hXwVDiwJGweBQmxT5fi6duG0fRId+ZHyuEwWNB4bflQ8V9R4KccOnYsH0EDtv7fEMeZWwtaVcC+h55KGLbadd7cv7xDzlSOyn/4VFOOJTUg2pS5sdOyMQByoW2eIqLTcszqtCUWldBC+8n4zXhHWXR8eGTq1oxVP5VyXhlcGQ0vrI/1hAZa7k3Ed49aT8144XRrz6wn46qtJDf+mm8xqHTQRc80w1biYUocVWYpsiQK1B5LKEyPajgGd8ZmXrmOZIbVLVQlkaSvR9s7ug+AzFUeKJZPhs6etbXPeXaW3jg7Jkz/ccPFjAm9Lp4CN5QgYoSTjUcgucs5A66NrYX158gjj3KOTFl4eeCuqPKU7CjWgeqBDxvNnPMskxA1MP30ajamYyvnO6tPv/xzMmVyqiSKtGoGhppsQ8uIKjGZux3o59dbj/+YQIuvJM8uVplIUHfYGfjYHkTse20a01j5NQj8rrOb4XhGJzSg2pT5yWYJC/+qE2NjfPLtKwzlHBhmqZCvtkhThw4F5s9M9DvPcdRXMh30zft7Jtt8YRaPOIAWsKEu+gf/oGW+MCZFjQslo4Levw2ZxEvOshrVcjnm21pJ88uSvhkdnaoiPyYpOdQTZ1ozSQ9A7nELCoVfrbIc4+qPMpC51EcTdF5+DnHoOcbh79PtLIrf6E3LFhhQqsHKkEpigplwd1Yei/agpQJi84Sw1ksFprKfCY82yRUQlevUmrS02ZxIcuS4ZmGispZmNyreMUlT4Eqv/Ct6IvlLVTZisX4BMzLicUoMJty+vxLFpXnK/PMr2fXt5zu9bpDZcK2NH52oGcXfljhC5N6LfOJ8h8O1QriuwgqZg4baFw8SDNzbfs4ARnWNLqoabXaXbVF1gL/fGcVAP59WmWWQuV3d1YJ842NjVZCA0V3GL0teoi96HBHAYsvuQmGyvZ/AD+ndGSp0CbKuQo6aE5ctX3teNkluHDqUR/03L828oGKgqwJlTByeW3g8wXvjDV++EOtQkugYj+OerfxkcjD0bXarXd+0V5/kJ2DzaQuukZPnrrVOyr8rolUKith92wHztv2di7zLdpEe9dcmeGkCzXbA4eDJzvtXzaLKxs3LMQ7PQZGlTjfsjbwjbW2xTJ36KBWoSVQBYastdtQ40ZIHRSnQOKObb6PCFWsGfxr+mor+Cp3qEJtl0FoqlBlUKFlXbrwdW+DZ8eod7v/yjF4QrbEr0zG4Z/hqJFRBQJtaGj81+EKdLNsRxUqejiIhoQmtHhCFFilC60A9BKhsgDnb2Vx/aG9aj00JIEe5jfg6rXYpJz5Hpp5q2/0wW/efXR0/ffHwoH3k39j4hOnq+VaKGdaE0SoJA8I/KYJQ6WxPC6BCpX3/26zdIo8FEJH8ApEhgqMX5PBVw62vpVYKgvZ03JvUxStjVdVaqLp+o2Nket7I5HB985fGJ2D31QG52Djqs7YJpV1nQhV7Y0m/+Wq7EdV7UaP8MXa2o+IbRc/9Zg4Pai8M6Yi6+/D/HjOUAn2+CYPqumxI/M9WvryoMUSuiFbQtusYt9s0BSaPRLkOnyz+ww9AQOda0FHTw8aAWJYq8zSCejt6XKARD+x7aEbXV14VpcSyrCooq5Sf1fXUM4TEI31/wtQTUGVhzKdh812zkJRXJoO4GgufUGa1RL5D9eryGIqMSS6W1EkKTI/1+dfzhagCmFcZCrCYipa/MOU+q0uBbmIxZzb51+eKKMqZQOa1NHMkDd6AmIWFBl9FMPRtEJY4gtellQoh1caKrL9thyCCdT4QhHFxyPttBCJRDxSJCKjsRaXVcYXqatCxJO+aMlSqHh7uxVI+EKsth1dWbNOIXxbgVhGkXa9AkJE1uoFsgGFXbCZ7oDHoKMXzm6IjsOaEzIdghUq/AwBqtqGezfl2v3zV7Q1yqVQfTU8+LVtcHgkSGi6NPDNUaQtud4j2IlA3D9/UWbjNZsJZZTK5rbrlBBvzF8pTfxwr0GlFzTDhSA8yH87WjIWrE/m5wvvT4krp/27jELV2w/2RPfcAnEVkyAtS23A7WsDf/D3rK3tIcCQuIN//H9sIUE1Po1swFrfJj2o6ny/1imxYxq4KupawZ/UtHVkA97ZccITl8WJ/gsQTrY3VnlhdGxorEJlc58AlR9+P9m0u/sioU/PQLUCsBwIfSR+CGwtBNPGwoHxg+Cux02CirIGriP1elwPKmD7jU4Bymr7rvkdGYRUDFNkA+4cvgQd/NzKJB9p978/JQ2uD4fK53e1GDJsgDeZP97/7S1267RmkaUTULrUUiX+igwVEPqCVteMeJdoKYbOIBOBHdSFStKDCojdYfBOqQZUO8rb3BPnvDBYKHYvCKv6x8qihXF316qbxqD6uwP0JutvgeyhYv97wQqcaAKSJpf/jzJg4/OXrmiaS0hCt/EyvBxQibimPa34J0Noad0dq6UOroYQDscgHD2J/oDTBfzxChU/HQJUzvVdG5v8E937te2wpeYy7O7eBmL7K7XBRUvgmm4f+oZtpwlwsvUN3T4HsGUB1R90CtRPopr8O7s/UmNBFa+6tCJFF5VwP6tRBpUF1rJ40RJ1vSqtC79SotKLFQgqhvl5omF8sK6Jt+wxUkvR0lMhyXrg01Atv8b4i+ugaFQxyghK0QjKAGNSr6Vge7sPuCgGmYW8HFyaMbOQy+dfoiwyCyaFTshK3jILCrOQDS30CpvLv7ykmQV8SXtCKb7keIuZUmjQ1A+Vcj9/haF6kcxCYzsfwcwCzds9nID+MMStA8Fub/fY7CSeIAMqth3w6BNkakGSF+kFgghVOqxGtoKZBdQVu0pVi8yCF/q22A8j7TOcH6uWpetnK895DNmAHe75na21t+c7s7QBcbNiHwHB7b5L2l1mhZEKUNsw7yPtQ/AnLyJbZP+9yZy3TMUb84ebUVdWq+3YMJwLMwsHZoTjQbM51mCuhw1yAkZdZYa2TJEETm92kRTvDKjGff/Gv3arNOuJSH1/rkDGPnCRDJtaX1kp2NMMvtVmNbIUhVlA5lSLqrYujWBmwWQeRGPLv8rBm+caZCavY+IcZ2TLFMlXzaCuemBv9qMKOH8FFJqFKLjpbOwsGQVk4YrVlz7NeXOLtkrf3ULWqdq2I2YWfhqEC+bCjl1Bfnwv9hRukAWz+eEaOdO0IUFVO2oFRVZ2fFpziVWFyjamMxQQVEwBM07eLkRQ7Q4WjZHGZ3YiYo4iMar2VppZGL2fFE4l+QtBLg9D5doSDUEVxpgEVV0rYMebFKg0RBUq/6c6jUdQxaZBKEkshKD6SyluQo6COYoVQH2XepFZuAdhtSzsbOURVJtkaQTCZJGhJ6BtDA3aULnvtpEJ+E/0DX6t03oElb+yu4w89h6jZX1D32TOE7C+rNs3bRtRvRmdh0PkaJpj8mlFo8IeewyFlHg1N3BdvYgl0QQ56FUkwsJYoSwlYw15wiwocY4poZ75ZRAqojw3VGxOt10uwQ6OmHMxMQw28jAeDDZ00J+MCQflpH7Sv3KFqkjt5Sz17F9eHde5kam4uLgE/Zf6KUn/K/VXhpQUE/bo9SXfnNvnX56kw7wpBht4zFN+LymbL08lIuSN5qvoFKmwOPNSK1L6b9PSYOMsJiBpmqhAteKFTavsBTdJrV2K37pCGdM4hNFiUUKXFP+qX3xZfwVhwqLVLASTcKoamXv8+Hae4r+b4bzIZm76F4RBFQqLtA94dray1Tnhm9EukjmqpPu+B2SFyTb+oEG2fel7RFSZbIOl4PGDGzB3bZ0ddwDpgm9GzQZkOBHCVpoLwV9bqB1wiB9J2iMCDMa2GNsHtHDSH+X6WyQv2Eyo/F8XWMgbNolt1t4K19fWrSRFvNa3qRTZHdhpN0dxDpQ7wNUpbM9mCI2G0+RIS5Vz1cCvraE/d88wB264w+JkUwIagwqA3ikgWp2fa2/GZUKV+H9KrANBJNlW3yp4pEHSgOGL72KOJne7BtWEbhSayT+t5t5BCT9OeTdEP0vu2C7s6ve2FA52xqCD7ahMmjIDV0lQBT7A9NpDgnGRCZUYzn9MtoMBO3d4GrDzA2RvbGQDAr+em4uu4FVqK4Lq5vwRVb/1EJz1weRXvokt3T7fn7ck55ucu8Lja8JqCUpIULmmAPvJWgMb8UjMVSAxRWy6WAqcpyMySOiay8sxqIAC1e9LQa+azwJ/4LKn+PFGT0ndB/mFxeMzwq79A0fuwfKefxibgOzILbQmJuMTWTsNISRcj+ynyUtx4mb74FRo1N5HxgFBZesjEaVZC4LKO3NSbRDTfGOU5oRGDy3uoylajHLCfKMsNCLxMEb0KvYkmnlspJHwQMscVWy8Uc+PTmyMWkEcX4ilqgBrXwavdbSEeLRahQPY89KbNDgxAGYVFvduDCkLWcjrrq0z6ZD2Z6yYzC34t4YNKFIzi7UlPycx5/j5lyaL5nLaQF40mJnFIaZiL7/RowrbgM/QeJitYrTiO17htSp7g/J5TU/MLFBPhXkre/B4M35pErVfCipyw18N/jMlGKo5nFOGEztpYb4tasFh3hYRh3lnpk8hQBWfb2yU2Tm3EWVB+hu+dpAf8n6kePnndewfUcZh3no7ptJ8p56VGHfvQ8qCasA4baL8q2AzzTkntlvHqvvK2k/dOLTlJPxpZNKTqa8ToBIj9nXNdcn4yuzNZXEEh00mIKn5fPxKBQjUtI8TlHogza0pBXtmThJrQvJVMIStL8JADj2yn7rVu838uZphY6K966/McPxYzfbARL+/5pv7t8SdkerShKGIeCy1Q9bxJjB+K+st045Dd1A3T18idVCa76tANlO+QBoxTvfNUvB7GXxGNhRtLVVAJ2jeewu4Knr7wW41bZ16Ksz7h6jt+NT4iYEP+HcfHP6JMwYV+98y4ID4ngFmwfkrwD5sriO3HjssnHUT3TsUw8YCnGrhHk+LBYRuk2e7Bfjvl/oru/aqMQucuPoaDvO+fXTN92uigft/hY74ldOboiHYbAyqxDlMsZHc9dWgSvwQGeknNh9B9a8poBPijG3A2CO9hUgaHCYFVWDx7i8Fu8PsHpX5TtP1ZY2NqTBv+4XRuS3/C8PxVac3LMwhqIwYNngHnq2fYkwG/KsQVJLdPrKgB1VilHOdI/ZQ8VmgCPfGYvttmDKRn7iuGU+e9e/hArWlMRXm7TrSZHF9ZBUHjgWZudkjQ0WXZmfDKnnISFChJYcd6+nqMcCC+ofw1auTPQB9BQ97iMElAHwi274k3htL4ExXl5o30FOy40ZXt8N/VzVgnDZZ6DwTZ8Gh3nlKcDe9eMnLTEr3Cqug2ctzq6DKLhbW0FN5dH/ekX9VkjIt477OCt3KSJtt2Bc0zSY8ddWSN9oGfMssZCM/MwtM3iKjoDPC3uhRtcgspDxdnqxPpswknnprlTLNiWvB6wKVRieeMAv4kcfk0YzpCb3wYpb114xZCHoofs4dtlB0TFZyx9Giu03FWiZCJboXrMi6Jxggz88sxN0L5G6I2ET06xRCyP9NrwRmFlBXNJgF5yrYbNkBu2GrcAk2S6f2Hy0TKm8cnTRmLtduLLzQ7J05uW55mQUpPoG09Unzl0Tn9tga9A3ZjpP3CtENB/V2VRVmIdFQeF/NXE4lkKO/neHHkt5jsNlZ4xBXzbd4XAaZhbpwieDxVmi4nCry3MxChwN4SfuAzvmbCCrvfJBQBkvcrQeVwizULaCuZL6XZhZksycOW4tOwmY/bBZ+bLV8UnnOGLOw+4F7v5zY0PWBMRf/rJgFZDWV67r4O5MBvVGlH+ZtAf5dstKVzPfSzEJYGiwPWziEkxNDNRQpxsxCxkOQFBHfChJf1zvY8VbNlVoNqlA2zEJxFdurtxHP3u+M3dClQXWTB2Bm4fcO0KviIq4wC5Hre+thZ6QdQyXsSsbW3INhr0FPGFeyYMdUvYN/bMzFX2EWiH5DCKq6gxavLlR2e0gfKr2IeNeMx2S9mixQc/JPMwu+Pp9vNsj5P2+m4xePhPnY7JGwim5FgEoa7BquQjb5sAESJltmQbrbpcssoEsgSCwDlOxwZNlxpqvbgbqiyizk4TzsSj52C83gPPE0zjmPU8gpR9I8o6uTE8jp2rWviwqqIWmPz5/plnQ8aZ5aCuP/DBLmeYV51i4sSl+KUn9liCUXoc25ff7liQIVZczEpnMRypzb51+e/MwsPDXdFoO7F1+hUlRf+tcbPQEVcxnvNygXJTKJSsVHqLhXLWOik1dSVjx1zRRMwhSa8/LoQrMHjbDCIgafFmFizGa1U2FIXS0o4QDgS1Sybz8pkRERn4f+L8on77OwVTrVYuHR+3nFern22KIS3XR8vObtcET88XKZFlfCDaUWETbz49jFv85w6KT0XdfGJvFi934Dhk0ImcveB0crSE1n91SAwKruE0TtUvqyFOn9I6NVZNLGtf9wUgcr7PXtn1DfMjWlcu19ts38YxIB1MyPTBUX+6EjcdmYueyaAomodxrUa2+GL4XqM/hv4O9ZGyDkGwDSKViB84zXkSLiE3BTKfiLDA6QN+ID7zXpbcTXVq4vxWmxVTfi8/jH28b3e2L7hFNT9jlk2Bw/e3G4A/qOhBlDEfFb2+4OVYVu3/si+434AvFXQPyHu4c4YAqQYUNb4t3EjfiCdxSoCF8TFrbdGviDjm9twVYHSFyO31R18XfuSnq3RAvE6488NLIBi+aj8ZWnt4S9BgNHdg/T41O9w/GL2Y8qbAOKF2VRO34Gr7AIqhVsfESbhMGFcHq8G27ysQhIxIu6DtsIKldLXNUZm/PCMz6YDMEgx1AIKn+X7JxoWyMnjKWmB7sxs/Btk9IzjSJqUDlvW203NCdFGqpYqeIRQRAEld1TtUcHqq3D5DGFtwcQVH8pVWcWpHfvWCx74ARazJMKszAG4TXmMV7WjSW7/OL7H+TQzUvHDGzEO/+JHUL61JKb/ywuJdHJEXIkAIKq99GlUTISAdjm1k3JjgNHGuZ/UOOrGLOHokrMWAopxpzP5NvbPXSRvT3foIMjqgiwxWYDiXkBm48ezOZC8kMJP73zSdViMXH43joaBYujjPUy++WhmkpUg6zppR7qeRT3xOM44603W1vPHDrKaFI/LfmNhsqguZyTff5mMQuWXOxzypzb51+eLGUWlESgaaehVDjE2wn4tDxhFpRz3hmKwR4eTGqtMs4skOVVgEqH1WYJRdLMAlITzB6aKrR7OJPZnI/QMht1ReOLufQlaxWUNeEneD659TYcZ1iimiLl6bqLs/oa9Kp5qhcZgpmFH8tx1n44KYdq4KRnHMKWKt4L1Y5DJjMLk7L/YteR7G1ANvQRUkFvXCEGkGJmgf2q5wjZIpHGfvqdnlWDRNTbXXYOdK9v0mEWDswIu4LXvw7cXVh3y1l5fhfc0JRnKIexwizU3QJx7T6pMQviZSsxibh0HVbgHFe1JGYhlez/n0Bvfu2Buln8K0BdhQ6zYG7/pGbh8INjw4VjLZfe80Ri5U3GJiBmFrhx9+mh7PcBC5ANyMsgRPhIillwtXQNk8kTBKZ4U88nHRTo7i4XV9l2T9devqfOLIgTydiWqKnwYc38leE4/Ob68KXqUksCbjY2AXcnLeNT3/Yb3V0GbEzbWl40l10tnIucPE36sq3vsi5UWWzES4eG0O3sBGbh3LtTtrG/XuwPvP9XKPt3TVtCW4xCpfgsNIN/GWMWpEHSzFqEagrgQxdJPYxS/tv6Z7PoQuX8B7KTdZiF7yFc3+yF8LJ5DMITMlrADE5A/+rvf5BrZ91HjDELIejuIgewIagCO90EGgyLdKrzcBbLun4W/73uLgeRWcg3F5nthehvu4fGzAJ+xbCygM3xEjOB5MjIilZQBPiSkmLyExzvMPB6zEIWJbCwOooJak5xcRXIV+Uofj7wIB26/CRDvQpS/wEqaA6ySMIwT8Gl7eb/Rjtjv3Xxz0aeSh5APT0FCfJGjyratFQnf5II5sVExC+vLEfs0gqNuCVsLnOptDC0EuTGUNjZ/4Xk2nvNBJnLRYO3PRQnPdxHi3d9YUYYmA1zYvfsgkFzebCrrUka7CFolOoOjiTrDu824dDJwa4uwr4qKhSTkZ7drZNhICvxlgLpoWpNaBQ5a2ArLWIv41OPYjA61jIHz+9Kjr/nMZRnwT+TX1xQlxR+zN5v3Xv4I2TXrAqSWi7FkLkcuO1RpUUWxXloQyn405RECC/IUpyHtjjAniT/W1UXf77uvaO3ubluBJX7fGLNvZ3B+cbQhsb5hcz0VSSoEj9FZDDWBLzTWRs24r07gLXPBUltZ+2XKkDttYhaJMcTkeynS8H/VOklD8hCJPtdB/gfGahtvtKUcD3ZWy1T/qNh2lI7MXlv9Y3uI254ps9g4Eho+OTF6OPNike+hqhn8a8NkluPw7yHs8iKBlivzpZpVrLVgWtSPfCAC9U8GID9NILK2Sb74U8rb/l/PF2WOiPeAFQmK+jtr28CdQaZhWygogqy2IiXDgWXIy0agkoaVN2DpvnPPj1vH/u0yn+4P7Du2iUY/uz2IXj+/Z8GNxobVX9PCl86rqK1ypi5jKDSCffAeRZGSwZJiU4UqL7r191ezkYQVLuTqjXRknsfTYtuWZqPcoK7bYETDqXT5xg7y9Q21xYFthgOD9PyB8sMctuHLgHiMqTkcGTn9NKHdsi2T9zutpyXdQDiMotrUgtHUrL4c3Q63R5Fpy5Ir3pBoZOvj2T4LBDljYbK4KF3OR0d97ofemfoIzkfegeW6RS6FyzKqFKz9LTljZ6A2FymaCadZi+VdQ+tSamIeCPa+tOS7elI5OJZvfsCBZMw6UPvojQVb2ynOD6CD71rVDnIjRwRH/EA9iTp4DmVxLx2u246XVymXa+QUAVYcTkOvcOJeQvQHdX0KhMlrIPNdAc8Bh1eOFAdLYmVydL18pphzpB7R6Lh3s0mb8vcpJF869Ln8516/bM9dF/aQFaY+PjFUtB7exkOvePFAQdw3pzvVE3KlDr07tvRkrG/Hp0KtEUXD73bIBuKXcZabvS7VK49DcmESk9TT4uLrKqDWl+1cuZW7uays3uDAyTUU8AvHnoXl8WJtisQtngK5xpkV4NHsQGN5K+yDZ6oOtBsGzOSb90F+yb1z/Tz79floZBhQ4HAF8ugraOv/Or6vr2q5rJy6J2Dj1Um/RP9/tX9llCDHJr0GDSXWcqaX9/q7OoaMAIVz+FjEvQWbuK5EClBULEdN5cj4TqCCrVK9Yx4rm49PvRuBwyahetJoVKBKgEXDJ46yT4sBVf7O2R+0EA0BPgvh+7kQkaiTl44LAiqOh3//Sxla4qvUo2IX3enoKAOVmIX/xCE2zx0aIOMw7fCxgjjRHnfZFNoU7ehw1n8Nd26aReBs0ffb+Nxqe3jB91q/itGBcfYlA9sU13WaZxrj6ZpiwWZyEVIxVK2Ikx4G8JkKNdewZOLAb1qha7i9GL1qhXaTaK1LGPVLeY3eh/whe4uF77Wu8v55hcohS/yZsspio+/MWYhV3NZ18H3VZa3zELWQqtmHzQpp7MoNAOTdrVCT0bqJUOV1bPwl8u4qgpVHiXcSx36gzEq9mADh2EaZQ3CeIVi/durJHukCkiRiJYquAQqqV35HDKXCR539iqbUjewtWtG8tki1tRthQjxZKB0TdoixSMepSYJsxlLQVcfVZTz6Cw8OyvjkcUPJnFOY6SrttJao8L2LtJgmx+XTzwqvL//itZJ5s9AxQoj56x+6PP1s+JOrSPK+BBsDkBcN7/1slYn+R1wszTScOWfgcoHkGR/B1bjmrTftz0uv/Ko+MDZ1XeQLg4zzED1UZVnKqmFrflcvKvTIw7sjwrutn3Mu9pQscUlf//UDx218H9rNie0csg9A5XzfdStxHaOAqhdGh4e7A7UNbawZPARPwa1gsFtP8I1a2thk9jZUdbk3U7Q7FErx0lHMvprWlEH4ObejZuLzR9nGFyqUKH5xtXCZksIdo7sPTlwLTIwHFsfJUCFbrOyVIpYXdXnj187nNWoKhDGk6AOfXutvHBUyxmGcdY04y7IbL5XzdhXJD8E17pQRWEhahvbRiQhApXNhNUMd2CDDEIT/wbAlXkeu8aoUqDix69V1ULPO0m+o+tiNRmqP6E2SoMNpYny9th6DVNsyVqFoBLawZ5fA9uIpt+Q0rfd+HR7lyZUIAHXhmBTqLxJvNhSRVzX9+h4v6MOSB4pVt4U2JUZVk6Eytvg6S3zPD4nTgQ7EFTT2lDZPm4FgaNl0aKrm6pCUIMMeRYqFkEVS/KPPwISASo0qgKHsZlPhGpzLZS91fbKUU8JCSnpAvHcxsDIpmg+Bh3KiTWZX7cGVAyCykELF9Cw5mNwaAxOwIWPCaMKAYvXHAjPj0GolQxgKVTnrM5KWCYD6ZRmDwKoXqcCvetTElQsmsphtLLBMtITzllJTEGQwB2IPobwILiqst5qKAvoIWih8ygLJhhwRv8izkaTaUsAAAA5SURBVEJb+F9Ar9JXgwwrSrlqVlouF5rMgirB8JZZeEHMQsnrzSyUvGyj/bUQy8se0W/lrbzZ8v8BPEIN4/ovO/gAAAAASUVORK5CYII=;" vertex="1" parent="1">
          <mxGeometry x="906" y="381" width="298" height="169" as="geometry" />
        </mxCell>
        <mxCell id="hAMQrah5wHO0PN8DFBSk-19" value="" style="shape=image;verticalLabelPosition=bottom;labelBackgroundColor=default;verticalAlign=top;aspect=fixed;imageAspect=0;image=https://cdn.smartkarrot.com/wp-content/uploads/2020/10/Customer-Base.png;" vertex="1" parent="1">
          <mxGeometry x="866.09" y="90" width="377.81" height="210" as="geometry" />
        </mxCell>
        <mxCell id="hAMQrah5wHO0PN8DFBSk-20" value="Map of the US with the sales per state. This will have a slider at the bottom to change by year so the user can see the change in sales.&amp;nbsp;" style="shape=parallelogram;perimeter=parallelogramPerimeter;whiteSpace=wrap;html=1;fixedSize=1;fillColor=#e1d5e7;strokeColor=#9673a6;" vertex="1" parent="1">
          <mxGeometry x="1310" y="300" width="370" height="60" as="geometry" />
        </mxCell>
        <mxCell id="hAMQrah5wHO0PN8DFBSk-21" value="Bar chart (stacked) with the average sales for each category, and the stacked element will be the sub category item. This will also have a slider for the year to toggle to see the most popular item.&amp;nbsp;" style="shape=parallelogram;perimeter=parallelogramPerimeter;whiteSpace=wrap;html=1;fixedSize=1;fillColor=#f8cecc;strokeColor=#b85450;" vertex="1" parent="1">
          <mxGeometry x="1320" y="660" width="370" height="60" as="geometry" />
        </mxCell>
        <mxCell id="hAMQrah5wHO0PN8DFBSk-22" value="Line plot to show the sales for each year - aim to have a legend or slider (Depends on code) to toggle by year / show multiple years at a time, to see the trends for each year of sales&amp;nbsp;" style="shape=parallelogram;perimeter=parallelogramPerimeter;whiteSpace=wrap;html=1;fixedSize=1;fillColor=#d5e8d4;strokeColor=#82b366;" vertex="1" parent="1">
          <mxGeometry x="1310" y="1022" width="370" height="60" as="geometry" />
        </mxCell>
        <mxCell id="hAMQrah5wHO0PN8DFBSk-23" value="Pie chart you can hover over to see the percentage, and the segments show the different types of customers" style="shape=parallelogram;perimeter=parallelogramPerimeter;whiteSpace=wrap;html=1;fixedSize=1;fillColor=#fff2cc;strokeColor=#d6b656;" vertex="1" parent="1">
          <mxGeometry x="895.5" y="1016.5" width="370" height="60" as="geometry" />
        </mxCell>
        <mxCell id="hAMQrah5wHO0PN8DFBSk-24" value="Table with data - top states based on sales (overall) and maybe sales each year?&amp;nbsp;" style="shape=parallelogram;perimeter=parallelogramPerimeter;whiteSpace=wrap;html=1;fixedSize=1;fillColor=#dae8fc;strokeColor=#6c8ebf;" vertex="1" parent="1">
          <mxGeometry x="1120" y="470" width="170" height="60" as="geometry" />
        </mxCell>
        <mxCell id="hAMQrah5wHO0PN8DFBSk-25" value="Heading and picture for aesthetics" style="shape=parallelogram;perimeter=parallelogramPerimeter;whiteSpace=wrap;html=1;fixedSize=1;fillColor=#fff2cc;strokeColor=#d6b656;" vertex="1" parent="1">
          <mxGeometry x="1010" y="70" width="170" height="60" as="geometry" />
        </mxCell>
      </root>
    </mxGraphModel>
  </diagram>
</mxfile>
